<mxfile host="app.diagrams.net" modified="2024-03-26T15:17:32.214Z" agent="Mozilla/5.0 (Windows NT 10.0; Win64; x64) AppleWebKit/537.36 (KHTML, like Gecko) Chrome/123.0.0.0 Safari/537.36" etag="VyIzQ0byohJNrpOolLDa" version="24.1.0" type="device">
  <diagram name="Page-1" id="UrwsnHVV_tJ78oB9pmvZ">
    <mxGraphModel dx="1499" dy="662" grid="1" gridSize="10" guides="1" tooltips="1" connect="1" arrows="1" fold="1" page="1" pageScale="1" pageWidth="827" pageHeight="1169" math="0" shadow="0">
      <root>
        <mxCell id="0" />
        <mxCell id="1" parent="0" />
        <mxCell id="sISirMlON-6PlXsTELaS-1" value="Login/&lt;div&gt;Register&lt;/div&gt;" style="ellipse;whiteSpace=wrap;html=1;aspect=fixed;" parent="1" vertex="1">
          <mxGeometry x="30" y="100" width="70" height="70" as="geometry" />
        </mxCell>
        <mxCell id="sISirMlON-6PlXsTELaS-2" value="Supermarket Search" style="ellipse;whiteSpace=wrap;html=1;aspect=fixed;" parent="1" vertex="1">
          <mxGeometry x="368.99999999999994" y="340" width="80" height="80" as="geometry" />
        </mxCell>
        <mxCell id="sISirMlON-6PlXsTELaS-3" value="News&lt;div&gt;Feed&lt;/div&gt;" style="ellipse;whiteSpace=wrap;html=1;aspect=fixed;" parent="1" vertex="1">
          <mxGeometry x="330" y="42.5" width="65" height="65" as="geometry" />
        </mxCell>
        <mxCell id="sISirMlON-6PlXsTELaS-4" value="Destaques" style="ellipse;whiteSpace=wrap;html=1;aspect=fixed;" parent="1" vertex="1">
          <mxGeometry x="260" y="340" width="70" height="70" as="geometry" />
        </mxCell>
        <mxCell id="sISirMlON-6PlXsTELaS-5" value="" style="endArrow=classic;html=1;rounded=0;exitX=0.969;exitY=0.29;exitDx=0;exitDy=0;exitPerimeter=0;" parent="1" source="sISirMlON-6PlXsTELaS-1" edge="1">
          <mxGeometry width="50" height="50" relative="1" as="geometry">
            <mxPoint x="350" y="370" as="sourcePoint" />
            <mxPoint x="170" y="80" as="targetPoint" />
            <Array as="points">
              <mxPoint x="140" y="120" />
              <mxPoint x="140" y="80" />
            </Array>
          </mxGeometry>
        </mxCell>
        <mxCell id="sISirMlON-6PlXsTELaS-6" value="" style="endArrow=classic;html=1;rounded=0;" parent="1" edge="1">
          <mxGeometry width="50" height="50" relative="1" as="geometry">
            <mxPoint x="95" y="150" as="sourcePoint" />
            <mxPoint x="170" y="190" as="targetPoint" />
            <Array as="points">
              <mxPoint x="140" y="150" />
              <mxPoint x="140" y="190" />
            </Array>
          </mxGeometry>
        </mxCell>
        <mxCell id="sISirMlON-6PlXsTELaS-8" value="Access" style="text;html=1;align=center;verticalAlign=middle;whiteSpace=wrap;rounded=0;" parent="1" vertex="1">
          <mxGeometry x="100" y="180" width="60" height="30" as="geometry" />
        </mxCell>
        <mxCell id="sISirMlON-6PlXsTELaS-9" value="Insert Credentials&lt;div&gt;successfully&lt;/div&gt;" style="text;html=1;align=center;verticalAlign=middle;whiteSpace=wrap;rounded=0;" parent="1" vertex="1">
          <mxGeometry x="260" y="30" width="60" height="30" as="geometry" />
        </mxCell>
        <mxCell id="sISirMlON-6PlXsTELaS-10" value="Login&amp;nbsp;" style="rounded=0;whiteSpace=wrap;html=1;" parent="1" vertex="1">
          <mxGeometry x="170" y="60" width="80" height="30" as="geometry" />
        </mxCell>
        <mxCell id="sISirMlON-6PlXsTELaS-11" value="Register&amp;nbsp;" style="rounded=0;whiteSpace=wrap;html=1;" parent="1" vertex="1">
          <mxGeometry x="170" y="170" width="80" height="30" as="geometry" />
        </mxCell>
        <mxCell id="sISirMlON-6PlXsTELaS-12" value="Access" style="text;html=1;align=center;verticalAlign=middle;whiteSpace=wrap;rounded=0;" parent="1" vertex="1">
          <mxGeometry x="90" y="50" width="60" height="30" as="geometry" />
        </mxCell>
        <mxCell id="sISirMlON-6PlXsTELaS-13" value="" style="endArrow=classic;html=1;rounded=0;exitX=1;exitY=0.5;exitDx=0;exitDy=0;" parent="1" source="sISirMlON-6PlXsTELaS-10" edge="1">
          <mxGeometry width="50" height="50" relative="1" as="geometry">
            <mxPoint x="220" y="190" as="sourcePoint" />
            <mxPoint x="330" y="75" as="targetPoint" />
          </mxGeometry>
        </mxCell>
        <mxCell id="sISirMlON-6PlXsTELaS-14" value="" style="endArrow=classic;html=1;rounded=0;exitX=0.5;exitY=1;exitDx=0;exitDy=0;entryX=0.5;entryY=1;entryDx=0;entryDy=0;" parent="1" source="sISirMlON-6PlXsTELaS-11" target="sISirMlON-6PlXsTELaS-1" edge="1">
          <mxGeometry width="50" height="50" relative="1" as="geometry">
            <mxPoint x="220" y="190" as="sourcePoint" />
            <mxPoint x="50" y="250" as="targetPoint" />
            <Array as="points">
              <mxPoint x="210" y="250" />
              <mxPoint x="65" y="250" />
            </Array>
          </mxGeometry>
        </mxCell>
        <mxCell id="sISirMlON-6PlXsTELaS-15" value="Insert new email and pw" style="text;html=1;align=center;verticalAlign=middle;whiteSpace=wrap;rounded=0;" parent="1" vertex="1">
          <mxGeometry x="100" y="260" width="80" height="30" as="geometry" />
        </mxCell>
        <mxCell id="sISirMlON-6PlXsTELaS-16" value="Create account" style="text;html=1;align=center;verticalAlign=middle;whiteSpace=wrap;rounded=0;" parent="1" vertex="1">
          <mxGeometry y="200" width="60" height="30" as="geometry" />
        </mxCell>
        <mxCell id="sISirMlON-6PlXsTELaS-17" value="" style="endArrow=classic;html=1;rounded=0;exitX=1;exitY=0.5;exitDx=0;exitDy=0;" parent="1" source="sISirMlON-6PlXsTELaS-3" edge="1">
          <mxGeometry width="50" height="50" relative="1" as="geometry">
            <mxPoint x="400" y="75" as="sourcePoint" />
            <mxPoint x="440" y="75" as="targetPoint" />
          </mxGeometry>
        </mxCell>
        <mxCell id="sISirMlON-6PlXsTELaS-18" value="Access" style="text;html=1;align=center;verticalAlign=middle;whiteSpace=wrap;rounded=0;" parent="1" vertex="1">
          <mxGeometry x="395" y="55" width="46" height="10" as="geometry" />
        </mxCell>
        <mxCell id="sISirMlON-6PlXsTELaS-21" value="" style="endArrow=classic;html=1;rounded=0;exitX=1;exitY=0.5;exitDx=0;exitDy=0;" parent="1" edge="1">
          <mxGeometry width="50" height="50" relative="1" as="geometry">
            <mxPoint x="531" y="74.71000000000001" as="sourcePoint" />
            <mxPoint x="590" y="75" as="targetPoint" />
          </mxGeometry>
        </mxCell>
        <mxCell id="sISirMlON-6PlXsTELaS-22" value="Select expand&lt;div&gt;article&lt;/div&gt;" style="text;html=1;align=center;verticalAlign=middle;whiteSpace=wrap;rounded=0;" parent="1" vertex="1">
          <mxGeometry x="526" y="40" width="69" height="10" as="geometry" />
        </mxCell>
        <mxCell id="sISirMlON-6PlXsTELaS-24" value="&lt;span style=&quot;text-align: left;&quot;&gt;&amp;nbsp;List of&amp;nbsp;&lt;/span&gt;&lt;span style=&quot;text-align: left;&quot;&gt;Article Previews&lt;/span&gt;" style="rounded=0;whiteSpace=wrap;html=1;" parent="1" vertex="1">
          <mxGeometry x="441" y="55" width="90" height="40" as="geometry" />
        </mxCell>
        <mxCell id="sISirMlON-6PlXsTELaS-25" value="Detailed Article Overview" style="rounded=0;whiteSpace=wrap;html=1;" parent="1" vertex="1">
          <mxGeometry x="590" y="60" width="90" height="40" as="geometry" />
        </mxCell>
        <mxCell id="sISirMlON-6PlXsTELaS-26" value="" style="endArrow=classic;html=1;rounded=0;exitX=0.5;exitY=1;exitDx=0;exitDy=0;entryX=0.544;entryY=0.875;entryDx=0;entryDy=0;entryPerimeter=0;" parent="1" source="sISirMlON-6PlXsTELaS-25" target="sISirMlON-6PlXsTELaS-24" edge="1">
          <mxGeometry width="50" height="50" relative="1" as="geometry">
            <mxPoint x="520" y="170" as="sourcePoint" />
            <mxPoint x="590" y="150" as="targetPoint" />
            <Array as="points">
              <mxPoint x="635" y="120" />
              <mxPoint x="490" y="120" />
            </Array>
          </mxGeometry>
        </mxCell>
        <mxCell id="sISirMlON-6PlXsTELaS-27" value="Back" style="text;html=1;align=center;verticalAlign=middle;whiteSpace=wrap;rounded=0;" parent="1" vertex="1">
          <mxGeometry x="531" y="130" width="59" height="10" as="geometry" />
        </mxCell>
        <mxCell id="sISirMlON-6PlXsTELaS-28" value="Statistical data" style="ellipse;whiteSpace=wrap;html=1;aspect=fixed;" parent="1" vertex="1">
          <mxGeometry x="462.5" y="190" width="60" height="60" as="geometry" />
        </mxCell>
        <mxCell id="sISirMlON-6PlXsTELaS-29" value="Feedback" style="ellipse;whiteSpace=wrap;html=1;aspect=fixed;" parent="1" vertex="1">
          <mxGeometry x="20" y="330" width="80" height="80" as="geometry" />
        </mxCell>
        <mxCell id="sISirMlON-6PlXsTELaS-30" value="Saved products" style="ellipse;whiteSpace=wrap;html=1;aspect=fixed;" parent="1" vertex="1">
          <mxGeometry x="20" y="440" width="80" height="80" as="geometry" />
        </mxCell>
        <mxCell id="sISirMlON-6PlXsTELaS-31" value="" style="endArrow=classic;html=1;rounded=0;exitX=1;exitY=1;exitDx=0;exitDy=0;" parent="1" source="sISirMlON-6PlXsTELaS-3" target="sISirMlON-6PlXsTELaS-28" edge="1">
          <mxGeometry width="50" height="50" relative="1" as="geometry">
            <mxPoint x="420" y="100" as="sourcePoint" />
            <mxPoint x="530" y="120" as="targetPoint" />
            <Array as="points">
              <mxPoint x="420" y="98" />
              <mxPoint x="420" y="220" />
            </Array>
          </mxGeometry>
        </mxCell>
        <mxCell id="sISirMlON-6PlXsTELaS-32" value="Select" style="text;html=1;align=center;verticalAlign=middle;whiteSpace=wrap;rounded=0;" parent="1" vertex="1">
          <mxGeometry x="416.5" y="150" width="46" height="10" as="geometry" />
        </mxCell>
        <mxCell id="sISirMlON-6PlXsTELaS-35" value="" style="endArrow=classic;html=1;rounded=0;exitX=0.969;exitY=0.29;exitDx=0;exitDy=0;exitPerimeter=0;" parent="1" edge="1">
          <mxGeometry width="50" height="50" relative="1" as="geometry">
            <mxPoint x="522.5" y="215" as="sourcePoint" />
            <mxPoint x="594.5" y="175" as="targetPoint" />
            <Array as="points">
              <mxPoint x="564.5" y="215" />
              <mxPoint x="564.5" y="175" />
            </Array>
          </mxGeometry>
        </mxCell>
        <mxCell id="sISirMlON-6PlXsTELaS-36" value="" style="endArrow=classic;html=1;rounded=0;exitX=0.952;exitY=0.674;exitDx=0;exitDy=0;exitPerimeter=0;" parent="1" source="sISirMlON-6PlXsTELaS-28" edge="1">
          <mxGeometry width="50" height="50" relative="1" as="geometry">
            <mxPoint x="522.5" y="230" as="sourcePoint" />
            <mxPoint x="597.5" y="270" as="targetPoint" />
            <Array as="points">
              <mxPoint x="567.5" y="230" />
              <mxPoint x="567.5" y="270" />
            </Array>
          </mxGeometry>
        </mxCell>
        <mxCell id="sISirMlON-6PlXsTELaS-37" value="Access" style="text;html=1;align=center;verticalAlign=middle;whiteSpace=wrap;rounded=0;" parent="1" vertex="1">
          <mxGeometry x="521" y="180" width="46" height="10" as="geometry" />
        </mxCell>
        <mxCell id="sISirMlON-6PlXsTELaS-38" value="Negative statistical data" style="rounded=0;whiteSpace=wrap;html=1;" parent="1" vertex="1">
          <mxGeometry x="600" y="160" width="80" height="30" as="geometry" />
        </mxCell>
        <mxCell id="sISirMlON-6PlXsTELaS-39" value="Positive statistical data" style="rounded=0;whiteSpace=wrap;html=1;" parent="1" vertex="1">
          <mxGeometry x="600" y="260" width="80" height="30" as="geometry" />
        </mxCell>
        <mxCell id="sISirMlON-6PlXsTELaS-40" value="Swipe left" style="text;html=1;align=center;verticalAlign=middle;whiteSpace=wrap;rounded=0;" parent="1" vertex="1">
          <mxGeometry x="525" y="250" width="46" height="10" as="geometry" />
        </mxCell>
        <mxCell id="sISirMlON-6PlXsTELaS-41" value="" style="endArrow=classic;html=1;rounded=0;entryX=0.5;entryY=0;entryDx=0;entryDy=0;" parent="1" target="sISirMlON-6PlXsTELaS-2" edge="1">
          <mxGeometry width="50" height="50" relative="1" as="geometry">
            <mxPoint x="409" y="310" as="sourcePoint" />
            <mxPoint x="336.65999999999997" y="310" as="targetPoint" />
            <Array as="points" />
          </mxGeometry>
        </mxCell>
        <mxCell id="sISirMlON-6PlXsTELaS-42" value="Select&lt;div&gt;home&lt;/div&gt;" style="text;html=1;align=center;verticalAlign=middle;whiteSpace=wrap;rounded=0;" parent="1" vertex="1">
          <mxGeometry x="240" y="120" width="46" height="10" as="geometry" />
        </mxCell>
        <mxCell id="sISirMlON-6PlXsTELaS-44" value="" style="endArrow=classic;html=1;rounded=0;exitX=0.969;exitY=0.29;exitDx=0;exitDy=0;exitPerimeter=0;" parent="1" edge="1">
          <mxGeometry width="50" height="50" relative="1" as="geometry">
            <mxPoint x="448.99999999999994" y="380" as="sourcePoint" />
            <mxPoint x="519" y="360" as="targetPoint" />
            <Array as="points">
              <mxPoint x="490.99999999999994" y="380" />
              <mxPoint x="490.99999999999994" y="360" />
            </Array>
          </mxGeometry>
        </mxCell>
        <mxCell id="sISirMlON-6PlXsTELaS-45" value="" style="endArrow=classic;html=1;rounded=0;exitX=0.952;exitY=0.674;exitDx=0;exitDy=0;exitPerimeter=0;" parent="1" edge="1">
          <mxGeometry width="50" height="50" relative="1" as="geometry">
            <mxPoint x="448.99999999999994" y="390" as="sourcePoint" />
            <mxPoint x="519" y="400" as="targetPoint" />
            <Array as="points">
              <mxPoint x="488.99999999999994" y="390" />
              <mxPoint x="488.99999999999994" y="400" />
              <mxPoint x="498.99999999999994" y="400" />
            </Array>
          </mxGeometry>
        </mxCell>
        <mxCell id="sISirMlON-6PlXsTELaS-46" value="Type market name" style="text;html=1;align=center;verticalAlign=middle;whiteSpace=wrap;rounded=0;" parent="1" vertex="1">
          <mxGeometry x="438.99999999999994" y="330" width="60" height="30" as="geometry" />
        </mxCell>
        <mxCell id="sISirMlON-6PlXsTELaS-47" value="Select market Option from dropdown" style="text;html=1;align=center;verticalAlign=middle;whiteSpace=wrap;rounded=0;" parent="1" vertex="1">
          <mxGeometry x="438.99999999999994" y="410" width="82" height="50" as="geometry" />
        </mxCell>
        <mxCell id="sISirMlON-6PlXsTELaS-48" value="" style="endArrow=classic;html=1;rounded=0;entryX=0.5;entryY=0;entryDx=0;entryDy=0;exitX=0.5;exitY=1;exitDx=0;exitDy=0;" parent="1" edge="1">
          <mxGeometry width="50" height="50" relative="1" as="geometry">
            <mxPoint x="294.67" y="410" as="sourcePoint" />
            <mxPoint x="294.67" y="482" as="targetPoint" />
          </mxGeometry>
        </mxCell>
        <mxCell id="sISirMlON-6PlXsTELaS-49" value="" style="endArrow=classic;html=1;rounded=0;entryX=0.5;entryY=0;entryDx=0;entryDy=0;" parent="1" target="sISirMlON-6PlXsTELaS-4" edge="1">
          <mxGeometry width="50" height="50" relative="1" as="geometry">
            <mxPoint x="300" y="310" as="sourcePoint" />
            <mxPoint x="273.2359594922143" y="340.54424304671375" as="targetPoint" />
          </mxGeometry>
        </mxCell>
        <mxCell id="sISirMlON-6PlXsTELaS-50" value="Select Product" style="text;html=1;align=center;verticalAlign=middle;whiteSpace=wrap;rounded=0;" parent="1" vertex="1">
          <mxGeometry x="239.99999999999994" y="430" width="46" height="10" as="geometry" />
        </mxCell>
        <mxCell id="sISirMlON-6PlXsTELaS-51" value="Product Details Overview" style="rounded=0;whiteSpace=wrap;html=1;" parent="1" vertex="1">
          <mxGeometry x="235" y="480" width="120" height="60" as="geometry" />
        </mxCell>
        <mxCell id="sISirMlON-6PlXsTELaS-53" value="" style="endArrow=none;html=1;rounded=0;" parent="1" edge="1">
          <mxGeometry width="50" height="50" relative="1" as="geometry">
            <mxPoint x="299.99999999999994" y="310" as="sourcePoint" />
            <mxPoint x="410" y="310" as="targetPoint" />
          </mxGeometry>
        </mxCell>
        <mxCell id="sISirMlON-6PlXsTELaS-54" value="" style="endArrow=none;html=1;rounded=0;" parent="1" edge="1">
          <mxGeometry width="50" height="50" relative="1" as="geometry">
            <mxPoint x="360" y="110" as="sourcePoint" />
            <mxPoint x="360" y="310" as="targetPoint" />
          </mxGeometry>
        </mxCell>
        <mxCell id="sISirMlON-6PlXsTELaS-55" value="Supermarket Location on map" style="rounded=0;whiteSpace=wrap;html=1;" parent="1" vertex="1">
          <mxGeometry x="521" y="350" width="120" height="60" as="geometry" />
        </mxCell>
      </root>
    </mxGraphModel>
  </diagram>
</mxfile>
